<svg xmlns="http://www.w3.org/2000/svg" xmlns:xlink="http://www.w3.org/1999/xlink" width="400" height="400" viewBox="0 0 105.833 105.833"><defs><radialGradient xlink:href="#a" id="b" gradientUnits="userSpaceOnUse" gradientTransform="matrix(-.0597 .18269 -.24984 -.08164 716.366 75.37)" cx="4391.521" cy="5243.132" fx="4391.521" fy="5243.132" r="215.842"/><linearGradient id="a"><stop offset="0" stop-color="#a48092"/><stop offset=".816" stop-color="#6b5a68"/><stop offset="1" stop-color="#19252d"/></linearGradient></defs><path d="M99.18 87.442c-.232.004-.483.014-.745.032-1.155.078-4.277.515-6.019.844-1.204.228-2.056.428-1.681.466.335.034 1.234-.065 1.846-.117.783-.068 1.501-.092 1.678.016.464.281-5.782 1.164-5.782 1.164-.466.048-1.085.136-1.717.236a7.135 7.135 0 01-.67-.463c-4.904-1.226-10.044-1.068-15.073-1.188-4.222-.726-8.515-.637-12.788-.71-9.82.715-19.738.593-29.437 2.494-2.179.852-10.287.835-5.912 3.478 2.83 1.67 5.094 3.106 8.634 3.591 6.319.694 12.65 1.392 19.004 1.76l-21.825 5.495c-1.933.592 1.867.817 3.919.342l22.366-5.63c.998.012 1.967-.207 2.96-.304 6.27-.027 12.52-.606 18.793-.7 3.813.13 7.498-.64 11.062-1.944 1.388-.626 7.026-1.594 5.52-2.715-.924-1.292-3.057-1.872-5.014-2.726l10.2-2.568c1.548-.39 2.07-.606 1.992-.695-.098-.114-.616-.168-1.31-.158z" opacity=".123"/><path d="M77.877 1.102c.184.531-.08 1.813-1.164 4.124l-46.122 98.371c-1.486 2.818-5.555 1.478-4.327-2.028l38.927-83.024c.777-1.508 2.362-3.426 3.348-4.117 0 0 5.195-5.236 4.396-6.905-.305-.637-.994-.493-1.697-.094-.55.311-1.331.897-1.706.697-.42-.223.193-1.414 1.126-2.764 1.35-1.95 3.95-4.543 5.012-5.006.965-.421 1.895-.154 2.207.746z" fill="#ffc6c0"/><path d="M78.4.107c-.591-.19-1.24-.118-1.848.147-.78.34-1.637 1.116-2.615 2.093-.978.976-1.983 2.13-2.695 3.16-.481.695-.885 1.348-1.136 1.92-.127.287-.222.547-.246.852-.012.153-.007.326.066.518a1 1 0 00.437.499c.31.165.614.137.842.084.228-.054.419-.142.602-.236.367-.19.708-.422.943-.554.297-.169.568-.248.664-.25.095 0-.007-.08.047.034.01.019 0 .5-.34 1.155-.338.654-.891 1.443-1.475 2.181-1.167 1.478-2.444 2.767-2.444 2.767l.096-.081c-1.198.84-2.726 2.733-3.57 4.372l-.007.011C59.823 31.753 55.1 42.47 49.99 53.517c-6.605 14.277-13.382 28.328-19.203 40.372-1.159 2.4-2.887 5.647-4.014 7.958l-.01.036c-.703 2.01.417 3.188 1.8 3.743 1.381.554 3.18 0 4.068-1.684l.007-.015C47.904 71.08 62.273 38.46 78.518 6.073c.585-1.166.907-2.11 1.102-2.85.195-.738.274-1.276.09-1.806A2.09 2.09 0 0078.4.108zm-.134.954c.194.063.51.313.603.578 0 0 .04.37-.122.984-.162.613-.363 1.478-.92 2.596-3.16 6.347-5.997 11.19-9.864 19.36-10.84 22.902-24.93 53.697-36.587 78.707-.598 1.128-1.823 1.846-2.54 1.56-.713-.288-1.259-.998-.744-2.483 4.644-9.592 8.38-17.704 12.89-27.213a3462.725 3462.725 0 0025.743-55.562c.71-1.377 2.61-3.492 3.384-4.035l.052-.037.044-.044s1.32-1.33 2.55-2.887c.616-.779 1.211-1.612 1.622-2.408.412-.796.75-1.597.36-2.412-.251-.524-.85-.848-1.351-.837-.501.01-.926.203-1.332.433-.15.086-.28.162-.425.251.203-.385.426-.797.775-1.302.637-.921 1.907-2.429 2.832-3.352.925-.924 1.9-1.675 2.182-1.798.356-.155.655-.16.849-.098z" style="line-height:normal;font-variant-ligatures:normal;font-variant-position:normal;font-variant-caps:normal;font-variant-numeric:normal;font-variant-alternates:normal;font-feature-settings:normal;text-indent:0;text-align:start;text-decoration-line:none;text-decoration-style:solid;text-decoration-color:#000;text-transform:none;text-orientation:mixed;white-space:normal;shape-padding:0;isolation:auto;mix-blend-mode:normal;solid-color:#000;solid-opacity:1" color="#000" font-weight="400" font-family="sans-serif" overflow="visible" fill="#62687c"/><path d="M47.725 98.738c-.592-.13-1.134-.45-1.479-.876a1.273 1.273 0 00-.184-.2c-.017-.007-.142.047-.277.118-.494.26-.772.33-1.304.328-.291 0-.429-.014-.588-.056-.592-.155-1.117-.492-1.443-.925a3.47 3.47 0 01-.244-.402 1.66 1.66 0 00-.167-.277c-.034-.028-.088-.023-.293.03-.217.055-.314.064-.713.063-.383 0-.502-.011-.702-.062a2.93 2.93 0 01-1.91-1.544c-.087-.175-.176-.316-.21-.334-.047-.025-.096-.021-.234.016-.243.068-.863.069-1.11 0-.223-.06-.52-.199-.726-.34a2.887 2.887 0 01-.57-.566 1.475 1.475 0 00-.327-.278 2.408 2.408 0 01-1.024-1.542c-.01-.049-.03-.089-.043-.089-.013 0-.12.033-.235.072-.455.154-1.057.109-1.52-.114-.612-.295-1.046-.814-1.283-1.539-.069-.211-.053-.206-.406-.14-.55.105-1.114-.052-1.608-.445a2.318 2.318 0 01-.634-.804l-.139-.274h-.514c-.551 0-.757-.032-1.152-.166-.882-.3-1.564-1.001-1.778-1.827a4.293 4.293 0 01-.078-.527l-.032-.35-.272-.046c-.59-.1-1.015-.308-1.432-.704a2.572 2.572 0 01-.73-1.242 3.07 3.07 0 01-.01-1.184c.062-.284.067-.274-.231-.397-.616-.253-1.224-.87-1.493-1.516-.17-.412-.223-.679-.223-1.146 0-.37.008-.453.072-.686.04-.146.071-.278.071-.294 0-.015-.088-.07-.196-.12-.728-.337-1.19-.902-1.339-1.64-.056-.276-.041-.818.028-1.075.119-.439.422-.88.788-1.146a.644.644 0 00.223-.246c.073-.155.065-.166-.196-.25a3.07 3.07 0 01-1.291-.784c-.557-.561-.816-1.206-.777-1.93.016-.301.078-.563.192-.821.038-.086.063-.172.055-.192a.718.718 0 00-.176-.14 2.678 2.678 0 01-1.073-1.4c-.07-.213-.075-.265-.076-.678 0-.342.01-.489.045-.62a2.75 2.75 0 01.386-.793c.082-.118.15-.237.15-.264 0-.028-.056-.104-.123-.17a2.864 2.864 0 01-.489-.71c-.193-.408-.299-1.083-.236-1.51.02-.138.017-.18-.013-.211-.022-.022-.052-.039-.07-.039-.072 0-.422-.239-.607-.414-.328-.312-.498-.588-.649-1.052-.066-.205-.075-.272-.076-.61 0-.532.088-.829.394-1.297l.138-.21-.212-.224c-.296-.314-.434-.508-.584-.821a2.616 2.616 0 01-.27-.961c-.073-.711.093-1.36.503-1.97.082-.122.15-.23.15-.241 0-.01-.105-.13-.233-.267a1.876 1.876 0 01-.393-.576c-.23-.465-.256-.585-.256-1.143 0-.398.008-.491.06-.673.144-.497.359-.844.773-1.25l.3-.292-.073-.128a3.526 3.526 0 01-.32-.728c-.052-.182-.061-.278-.06-.635 0-.513.05-.735.268-1.181a3.011 3.011 0 011.056-1.212c.454-.303.766-.433 1.203-.498a1.19 1.19 0 00.296-.07.607.607 0 00.092-.177c.148-.396.359-.726.65-1.018.305-.304.54-.45.977-.607l.234-.084v-.149c0-.082-.012-.295-.024-.474a3.194 3.194 0 01.422-1.84c.398-.67.986-1.106 1.663-1.233.122-.022.23-.049.24-.058.009-.01.036-.18.06-.377.065-.542.196-.917.46-1.323.308-.471.775-.866 1.236-1.044.278-.107.437-.141.761-.162l.259-.017.044-.312c.055-.384.11-.599.231-.89.236-.572.653-1.076 1.142-1.38.262-.164.656-.3.928-.322.428-.034.48-.077.52-.427.034-.292.09-.48.223-.735a2.2 2.2 0 01.985-.914c.235-.103.44-.136.834-.137h.373l.072-.143c.304-.602.797-1.025 1.37-1.175.226-.06.678-.06.945 0 .224.05.237.045.333-.116.35-.583.99-.981 1.577-.981a.653.653 0 00.375-.096c.21-.106.64-.257.729-.257.031 0 .09-.04.131-.088.433-.505.8-.763 1.311-.919.241-.073.69-.086.984-.027.18.035.19.034.341-.034.26-.117.499-.16.873-.159.426 0 .672.062 1.027.251.14.076.27.132.287.125.016-.006.06-.09.095-.185.171-.453.392-.813.692-1.13.342-.36.718-.602 1.17-.754.182-.061.28-.075.6-.087.464-.016.711.026 1.076.185.136.059.268.107.293.107.025 0 .09-.066.146-.147.144-.21.57-.609.777-.729a2.53 2.53 0 01.877-.309c.152-.023.29-.046.307-.051a.7.7 0 00.126-.18c.225-.4.597-.745 1.038-.96.325-.157.509-.204.882-.222.374-.017.549.011.865.143.129.054.256.104.282.112.03.01.104-.038.217-.141a2.662 2.662 0 011.096-.616c.184-.054.276-.062.649-.061.369 0 .467.01.65.062.439.125.89.395 1.208.721a.658.658 0 00.144.125c.013 0 .116-.063.23-.14.426-.288.803-.42 1.275-.45.648-.038 1.12.14 1.613.61.114.108.227.197.252.197.025 0 .154-.066.288-.147.801-.483 1.786-.52 2.574-.096.688.37 1.214 1.076 1.459 1.96l.043.156.2.092c.505.234.865.58 1.16 1.116.135.246.115.24.442.15.437-.12 1.024-.102 1.492.046.735.231 1.283.7 1.632 1.396.15.3.176.324.297.277.025-.01.082-.097.125-.195.216-.48.6-.84 1.067-.996.397-.133.822-.118 1.291.046.217.076.26.082.706.09.374.005.52.019.681.063.579.155 1.035.492 1.323.978.064.107.143.213.176.234.041.027.203.047.524.065.406.023.495.037.72.112.438.146.734.333 1.123.708.12.116.314.268.431.339.373.225.697.584.91 1.01l.058.115h.365c.46 0 .585.027.936.196.25.12.314.167.532.385.208.208.268.288.375.505.2.406.238.709.173 1.384-.006.06.016.074.265.165.47.17.728.33 1.034.635.322.322.54.695.668 1.145.052.183.061.28.062.676 0 .289-.013.532-.037.651-.08.407-.33 1.013-.654 1.588-.144.257-.145.259-.139.475.006.127.02.23.039.247.017.017.111.058.209.093.28.099.522.235.731.411.746.628 1.029 1.54.777 2.507-.082.315-.11.262.262.48.547.321.94.82 1.066 1.36.064.27.053.672-.027.986a2.931 2.931 0 00-.067.314c0 .052.02.069.339.271.277.176.615.523.78.799.26.44.386 1.01.325 1.488a2.975 2.975 0 01-.24.837c-.101.201-.092.225.112.276 1.02.256 1.795 1.352 1.644 2.325-.017.112-.068.31-.113.443l-.083.24.216.222c.483.495.693 1.002.693 1.673 0 .626-.192 1.135-.615 1.627-.07.082-.126.155-.126.163 0 .009.079.125.176.26.199.277.335.543.41.8.04.14.05.265.05.584 0 .37-.007.425-.072.607-.083.231-.2.432-.381.656a.952.952 0 00-.129.185c0 .014.137.106.306.205 1.032.612 1.563 1.188 1.843 1.999.088.255.088.262.089.773 0 .496 0 .525-.077.747-.19.566-.541 1.057-.987 1.376-.093.067-.17.136-.17.153 0 .018.048.142.106.276.312.726.278 1.332-.113 2.007-.134.231-.466.582-.737.778-.112.08-.204.162-.205.181 0 .019.05.15.11.292.157.368.197.58.197 1.045 0 .352-.008.42-.074.638-.225.745-.704 1.309-1.382 1.63-.085.04-.156.087-.158.104v.356c.007.487-.095.818-.38 1.237-.15.222-.499.536-.767.69-.13.076-.241.156-.25.18a.652.652 0 00.014.186c.04.21.034.751-.01.985-.092.478-.329.93-.677 1.29a2.437 2.437 0 01-.794.577c-.12.058-.235.124-.253.146-.027.032-.025.097.013.318.053.319.041.867-.024 1.097-.201.708-.64 1.215-1.305 1.507-.112.05-.211.107-.22.128a.935.935 0 00.016.233c.046.294.016.907-.056 1.172a2.795 2.795 0 01-.977 1.45c-.252.197-.65.373-1.08.477a.702.702 0 00-.223.08c-.02.025.043.385.217 1.24l.246 1.206-.053.287c-.084.456-.236.776-.513 1.083-.274.304-.748.592-1.12.682-.196.046-.671.047-.906 0-.215-.043-.209-.048-.277.187-.218.746-.795 1.363-1.497 1.604-.254.087-.283.09-.673.092-.392 0-.417 0-.655-.087a1.963 1.963 0 00-.292-.089c-.025 0-.084.058-.133.127-.482.697-1.086 1.054-1.84 1.088-.532.024-.92-.09-1.365-.4-.229-.16-.249-.16-.456-.01-.165.12-.428.241-.648.299-.207.053-.69.061-.933.014l-.16-.03-.178.166c-.503.47-1.06.668-1.677.595a2.25 2.25 0 01-.438-.1c-.32-.122-.3-.127-.476.134-.679.998-1.82 1.376-2.924.969a2.41 2.41 0 00-.245-.082c-.013 0-.085.125-.159.278-.4.826-1.237 1.342-2.08 1.284-.298-.02-.437-.053-.663-.154a1.154 1.154 0 00-.208-.078c-.02 0-.119.078-.222.172-.315.289-.585.448-.958.566-.18.056-.256.063-.664.063-.409 0-.485-.007-.664-.063a3.054 3.054 0 01-.744-.364c-.171-.116-.172-.116-.466-.04-.09.025-.282.057-.427.072-.146.016-.384.061-.53.1-.223.06-.324.072-.65.075-.24 0-.396.014-.415.033-.017.016-.088.19-.16.384-.171.469-.265.62-.573.931a3.422 3.422 0 01-1.33.836c-.408.132-1.045.176-1.412.096z" fill="#bc8a98"/><path d="M51.208 25.334c-.94.16-1.499 1.26-2.459.57-1.571-.327-1.852 1.64-3.25 1.606-.687.386-1.102 1.472-2.008.733-1.503-.394-2.493.99-3.006 2.184-1.135-.757-2.36-.145-3.586-.24-.97.529-1.749 1.473-2.96 1.426-.871.364-1.177 1.474-2.307 1.016-1.181.231-1.265 1.73-2.6 1.411-1.37.316-.702 2.528-2.4 2.252-1.333.34-1.337 2.14-1.876 2.78-1.729-.126-2.314 1.675-2.675 2.912-1.734.18-2.459 2.143-2.044 3.666-1.722.05-1.585 2.347-3.268 2.284-1.526.599-2.06 2.63-1.027 3.892-1.46.925-1.6 2.977-.313 4.104-1.065 1.3-.789 3.128.413 4.212-.948 1.13-.593 2.978.872 3.444-.249 1.076.268 2.002.87 2.813a2.407 2.407 0 00.807 3.77c-1.06 1.641.392 3.267 1.911 3.756.137 1.075-1.667 1.53-1.014 2.832.13 1.201 2.1 1.18 1.375 2.514-.309 1.496 1.252 2.248 1.98 3.023-.513 1.577.769 3.012 2.286 3.175.154 1.291.928 2.759 2.476 2.74 1.585-.493 1.636 2.155 3.338 1.51.933.042.98 1.967 2.29 1.896.847-.248 1.288-.086 1.786.442.886.558.284 1.072 1.082 1.636.717 1.28 2.615-.232 2.91 1.41.7 1.312 2.33 1.016 3.393 1.108.544 1.57 2.572 2.034 3.836 1 1.16 2.125 4.375 1.212 4.81-.965 1.185-.107 2.552-.777 3.658.057 1.257.479 2-1.27 3.144-.54 1.512.45 1.613-2.197 3.012-1.35 1.297.496 1.897-1.016 2.747-1.312.984.64 1.947-.344 2.653-.554.992.33 1.774-.96 2.611-.02 1.237.657 1.913-.759 2.842-1.092 1.34.678 2.571-.516 2.926-1.742 1.767.588 3.266-1.323 2.337-2.937-.442-.982-.13-1.761.998-1.85 1.237-.534 1.113-2.073 1.277-3.022 1.463-.372 1.353-1.966 1.51-3.035 1.257-.468 1.866-1.8 1.603-3.083.94-.493 1.586-1.42 1.412-2.51 1.444-.538 2.02-2.246 1.237-3.563 1.063-.714 1.664-1.997.997-3.19.944-.855 1.816-2.335.837-3.557-.516-.947-2.653-1.288-1.38-2.469.749-1.103-1.216-2.128-.067-3.017.849-1.083-.195-2.252-.598-3.08.743-1.396-.634-2.34-1.671-2.862.736-1.315.192-2.864-1.126-3.527.505-1.204-.177-2.335-1.245-2.873.321-1.302-.1-2.835-1.603-3.183-.443-1.447 1.58-2.927.372-4.434-.61-.993-2.225-.827-1.706-2.34-.318-1.638-2.344-.644-2.746-2.02a5.696 5.696 0 00-3.319-1.638c-.69-1.422-2.448-1.175-3.74-1.326-.721.144-1.272 2.072-1.934.806-.545-1.506-2.313-1.279-3.424-1.354-.51-1.09-1.739-1.348-1.977-2.584-.719-1.353-2.483-1.338-3.613-.55-.95-.955-2.304-1.036-3.396-.254-.687-.463-1.33-1.124-2.27-.906zm.304.66c2.063.149 1.76 2.886 2.02 4.327.666 6.84.647 13.81-.224 20.608-.431.44-1.694 2.13-1.917.87.912-8.29 1.309-16.89-1.169-24.905.104-.57.744-.93 1.29-.9zm3.756.318c1.768.625 1.235 3.136 1.709 4.57.625 5.318.765 10.788.173 16.082-.961.682-1.604 2.514-2.877 2.39.562-7.385.588-14.862-.395-22.177.201-.562.81-.895 1.39-.865zm-6.697.24c1.556.576 1.378 2.802 1.913 4.13 1.47 7.584 1.035 15.455-.115 23.038-.936.628-1.77 2.104-2.891 2.036.417-4.911 1.171-9.903 1.104-14.896a56.88 56.88 0 00-1.28-13.474c.213-.472.736-.866 1.27-.834zm10.054.034c2.134.371 1.755 3.238 2.08 4.824.277 3.802.441 7.71-.04 11.474-.895.674-1.329 2.38-2.578 2.402.273-5.975.069-11.954-.88-17.846.19-.563.854-.866 1.418-.854zm-12.421 1.302c1.035.36.674 2.125 1.08 3.003a65.437 65.437 0 01.315 15.791c-1.228-.15-.627-2.164-1.067-3.07-.66-4.835-1.497-9.707-1.576-14.581.167-.567.646-1.07 1.248-1.143zm-3.257.89c2.109.084 1.222 2.907 1.634 4.209.549 5.918 1.503 11.802 2.52 17.67-1.216-.07-3.075.096-2.857-1.645-1.209-6.219-2.509-12.479-2.951-18.795.229-.727.855-1.404 1.654-1.438zm20.863 1.426c1.597-.008 2.21 2.073.965 3.032-1.141 1.796-1.864 3.81-2.783 5.734-.793-1.806-.198-3.92-.436-5.832.575-1.032.622-3.046 2.254-2.934zm-24.681.366c1.462.453 1.79 2.515 1.97 3.824.22 2.215.786 4.395.9 6.617-1.762-.62-1.087-3.164-1.76-4.557-.33-1.937-1.178-3.798-1.531-5.696.11-.144.234-.221.42-.188zm-1.769 0c1.504.373 1.262 2.55 1.868 3.701a78.8 78.8 0 012.36 15.354c-.57.526-1.932-.763-2.025-1.513-.608-5.456-1.806-10.827-3.647-15.994-.06-.8.665-1.518 1.444-1.548zm30.543.234c.835.427-.757 2.24-.726.908.108-.346.228-1.033.726-.908zm1.834.227c1.918.049.905 2.426.406 3.384C65.502 44.462 57.27 52.267 49.147 59.54c-7.892 6.62-16.105 13.189-25.593 17.371-1.108.617-3.756 1.21-3.639-.815.528-1.559 2.752-1.735 3.89-2.745 5.605-3.008 11.247-6.02 16.063-10.237 7.46-5.727 14.832-11.7 20.738-19.077 3.318-3.941 6.253-8.182 8.435-12.82.196-.152.456-.184.696-.186zm-35.41.974c1.928.38 1.773 2.978 2.482 4.397.936 3.638 2.002 7.386 2.048 11.144-1.482-.84-3.009-2.267-2.956-4.128-.532-3.606-1.775-7.09-2.6-10.58.126-.441.554-.83 1.026-.833zm38.054.357c1.871.119 1.676 2.555.637 3.567-8.897 14.63-21.817 26.375-35.525 36.42-4.621 3.198-9.275 6.501-14.329 8.948-1.95.258-2.603-3.103-.525-3.342 8.368-3.141 15.616-8.857 22.666-14.308 9.373-7.798 18.747-16.281 24.6-27.1.969-1.214.842-3.264 2.124-4.146.117-.024.232-.047.352-.039zm-40.537.71c1.65.027 1.394 2.322 1.973 3.397.574 2.322 1.386 4.711 1.493 7.063-1.045.102-2.02-1.485-2.182-2.535-.456-2.428-1.735-4.642-2.419-6.953.134-.516.57-.978 1.135-.972zm34.215.395c-.217 2.436-1.476 4.524-3.033 6.378-1.072-.932.692-2.477.84-3.594.696-.953.851-2.802 2.126-3.085zm-36.477.953c1.586.541 1.609 2.785 2.316 4.082.526.675.679 2.772-.531 1.359-1.17-1.313-3.304-2.874-2.85-4.847.205-.373.635-.63 1.065-.594zm45.46.481c1.533-.1 1.526 1.864.751 2.723-6.827 12.517-17.526 22.365-28.357 31.398-7.045 5.633-14.335 11.066-22.141 15.58-1.787.635-2.932-2.151-1.175-2.893 16.811-9.675 32.18-22.2 44.136-37.53 2.36-2.875 4.143-6.222 6.276-9.189.154-.086.339-.088.51-.089zM27.28 36.859c3.148 2.542 5.65 5.92 8.496 8.822 1.11 1.27 2.405 2.366 3.488 3.658-1.662.301-3.44-.246-5.092-.469-3.032-2.861-6.353-5.707-8.329-9.437-.384-1.041.198-2.572 1.437-2.574zm50.224.297c1.787.067 1.803 2.36.862 3.423C72.27 50.816 63.38 59.008 54.677 66.996c-8.411 7.367-17.094 14.535-26.548 20.511-1.417.555-3.255-1.374-1.91-2.547 16.165-10.215 31.556-22.158 43.627-37.09 2.69-3.268 4.865-6.938 7.005-10.55.188-.134.427-.172.653-.164zM24.479 39.8c1.618.18 1.83 2.446 3.033 3.304 1.498 1.85 3.297 3.426 4.872 5.205-.707.946-2.299-.046-3.255.045-2.023-1.969-4.346-3.774-5.991-6.06-.514-.995.136-2.507 1.341-2.495zm54.42 2.824c1.707.274 1.356 2.589.007 3.144-1.404.841-2.871 2.342-4.33 2.616-.52-1.368 1.514-2.444 1.979-3.656.658-.735 1.326-1.926 2.347-2.104zm-56.898.093c2.005 1.227 3.49 3.338 5.251 4.927.164 1.178-2.108.2-2.904.384-1.66.211-2.653-1.484-3.589-2.562-.469-1.012-.041-2.674 1.242-2.75zm19.912.6c1.424 1.338 1.093 3.733 1.636 5.518-1.76-.182-1.788-2.673-1.924-4.028.065-.369-.49-1.645.288-1.49zm38.271 2.49c1.32.064 1.551 1.862.429 2.45-2.024 1.544-4.078 3.252-6.39 4.286-.505-.798-.15-2.264.196-3.084 2.012-1.036 3.744-2.738 5.765-3.651zm-60.108.618c.941-.172 2.013 1.673.5 1.384-.924.28-2.556-.34-1.26-1.167a1.3 1.3 0 01.76-.217zm-2.553 1.945c9.888.348 19.76 1.417 29.504 3.11.268.862.204 2.828-1.132 2.285-9.667-1.431-19.461-2.054-29.209-2.184-1.595-.857-.646-2.933.837-3.21zm63.885.321c1.603.152 1.597 2.416.322 3.067-1.7 1.452-4.2 1.286-6.285 1.622-.781-.983 1.835-1.568 2.481-2.36 1.215-.61 2.179-1.985 3.482-2.329zm-7.926.516c.72 1.008-.228 2.798-.045 4.082-.43 1.06.544 2.907-.646 3.28-.966-.185-2.329-.453-1.84-1.751.061-1.813-.029-3.766 1.648-4.933.27-.17.496-.83.883-.678zM16.72 52.31c9.994.059 20.008.716 29.876 2.295.242.745.145 2.163-.545 2.595-9.805-1.469-19.732-2.005-29.656-1.75-1.823-.406-1.471-2.956.325-3.14zm66.472.121c1.44.201 1.178 2.27-.23 2.362-2.885 1.073-5.99 1.876-9.045 1.967-.217-.798-.566-2.878.831-2.638 2.857-.251 5.667-.906 8.444-1.691zm-12.835.492c.512.63-.06 2.111.23 2.34-.622 1.2-2.668-.183-1.609-1.246.432-.273.831-1.282 1.38-1.094zm13.578 2.217c1.56.324 1.053 2.713-.403 2.838-2.224.382-4.598 1.396-6.688 0-1.434-.414.174-1.207.992-1.087 2.075-.322 4.09-1.144 6.1-1.75zm-16.33.679c6.244 1.788 12.7 3.58 18.184 7.16 1.418.879.122 3.572-1.366 2.53-5.761-3.503-12.223-5.644-18.59-7.677-.116-.673 1.088-1.853 1.772-2.013zm-43.69.276c6.976.087 13.96.597 20.852 1.672.273.921-1.21 1.438-1.79 1.848-8.473-.812-17.169-1.816-25.587-.102-2.026.697-2.804-2.963-.741-3.286 2.412-.203 4.847-.098 7.267-.132zm41.019 2.34c6.92 1.862 13.838 4.295 19.897 8.19 1.532.848-.192 3.24-1.466 1.998-6.415-3.486-13.36-5.869-20.341-7.9-.264-.85 1.353-1.845 1.91-2.288zm18.954.16c1.473.21.985 2.829-.443 2.191-.91-.517-1.953-.772-2.75-1.48.997-.449 2.13-.554 3.193-.711zm-56.494.71c4.777-.007 9.574.304 14.303.886.052 1.274-1.88 1.84-2.717 2.712-4.54-.467-9.128-.766-13.723-.318-2.89-.034-5.892.594-8.731.152-1.399-1.004.028-2.666 1.355-2.643 3.108-.723 6.336-.793 9.513-.79zm34.695 1.962c7.532 1.974 15.011 4.574 21.768 8.487 1.374.784.324 3.469-1.154 2.54-6.323-5.057-14.234-7.312-21.859-9.504-.29-.534.737-1.362 1.245-1.523zm-31.063 1.76c1.21-.137.683 1.654-.402 1.354-4.094.632-8.24 1.551-12.38 1.51-1.17-.291-1.462-2.77.154-2.347 4.213-.095 8.416-.42 12.628-.517zm1.526.05c1.136.031 2.864-.18 2.222 1.57.519 1.812-1.37 2.415-2.56 3.252-.487-1.46-.064-3.26.061-4.827zm27.312.283c7.93 2.003 16.184 4.398 22.607 9.685 1.312 1.027-.758 2.835-1.701 1.557-6.672-4.453-14.52-6.622-22.135-8.783-.273-.924.276-2.215 1.229-2.459zm-24.165.397c1.363.182.817 1.812-.278 1.61-.25-.392-.368-1.635.278-1.61zm-4.509 1.156c.88.344.239 1.81.27 2.626-4.19.84-8.46 1.757-12.708 2.005-1.803-.308-1.42-3.199.453-2.967 4.02-.386 8.007-.961 11.985-1.664zm26.46.928c-.794 5.814-2.345 11.636-3.74 17.378-1.287 4.642-2.4 9.406-4.232 13.851-.89 1.308-3.55.631-2.938-1.098 3.395-9.21 6.058-18.704 8.208-28.256.823-.51 1.837-2.357 2.703-1.875zm3.307 1.39C67 68.866 73.088 70.83 78.501 74.014c.134 1.238-1.906.109-2.672.11-5.336-1.37-10.536-3.601-15.219-6.419-.165-.133.142-.635.347-.476zm-2.373.319c7.031 3.814 14.483 7.466 22.556 8.14 1.304 1.184-.537 3.131-1.974 2.436-7.437-1.936-14.593-5.06-21.2-8.92-.11-.465.007-1.788.618-1.656zm-28.759 1.012c.948.975-2.426 1.667-3.138 2.427-1.955 1.398-4.303 2.24-6.71 2.113-1.49-.233-1.925-2.81-.193-2.937 3.355-.467 6.709-1.07 10.041-1.603zm23.58.632c.88.54-.236 2.186-.267 3.176-2.01 8.137-4.258 16.281-7.409 24.044-.937 1.534-3.498.269-2.761-1.392 3.242-7.649 5.565-15.643 7.73-23.632.923-.664 1.68-1.749 2.708-2.196zm4.691.992c6.782 3.727 13.957 6.794 21.41 8.844.985 1-.225 2.679-1.334 2.156-7.406-1.448-14.449-4.554-20.959-8.273-.024-.751.039-2.625.883-2.727zm-8.981 2.778c.665.918-.514 2.457-.55 3.571-1.797 6.283-3.727 12.591-6.476 18.52-1.294 1.541-4.046-.668-2.578-2.185 3.65-5.568 5.256-12.19 7.443-18.354.694-.502 1.366-1.395 2.16-1.552zm8.225.913c6.505 3.515 13.406 6.454 20.599 8.083 1.21 1.292-.593 3.153-2.075 2.512-6.874-1.629-13.323-4.813-19.385-8.346.018-.606.012-2.377.861-2.249zm-11.868 2.41c-1.331 5.158-3.215 10.41-5.838 15.136-.54 1.058-1.911 3.113-3.23 1.833-.976-1.412.866-2.966 1.056-4.373 1.516-3.428 2.833-6.995 4.478-10.339 1.173-.735 2.068-2.137 3.428-2.47zm11.099.808c1.921.485.541 2.963.96 4.315-.079 4.36.47 8.753 1.43 12.966-.493 1.358-2.303.777-2.35-.54-1.218-3.892-1.947-8.09-1.605-12.146.56-1.46.442-3.357 1.32-4.611.081.008.171-.039.245.016zm2.226 1.76c1.564 3.496 3.339 6.92 5.219 10.242-.055 1.235.495 2.252 1.038 3.245-1.341 1.212-2.468-.994-3.097-1.903-1.384-2.272-3.065-4.55-3.822-7.079.237-1.458-.46-3.374.263-4.63l.248-.093zm1.46.21c1.873.426 2.642 2.316 3.154 3.947-.194.86.9 3.18-.33 3.05-1.295-2.326-2.673-4.715-3.464-7.275l.64.277zm-20.347 1.2c1.107.899-1.293 1.093-.252.035l.118-.067zm24.369.794c1.082.396 2.492.771 2.21 2.24.138 2.73 1.114 5.488 1.001 8.202-.944 1.619-3.286-.2-2.91-1.69-.302-2.853-.795-5.743-.76-8.603.112-.133.288-.227.459-.149zm-25.515.474c.14 3.606-1.927 6.803-3.24 10.032-1.191.252-.613-1.875-.451-2.564.54-2.025.553-4.25 1.237-6.198.734-.377 1.782-1.888 2.454-1.27zm28.55.899c.971.385 2.559.518 2.359 1.95.175 2.291 1.204 4.57 1.049 6.85-.431 1.51-2.906 1.114-2.706-.492-.242-2.719-1.124-5.509-.997-8.203.097-.039.173-.167.295-.105zm3.245 1.25c1.11.229 2.324.605 2.223 2.009.216 1.658 2.156 4.145.108 5.373-1.838.675-1.841-1.905-2.1-3.028-.037-1.386-1.02-3.158-.453-4.344.074 0 .15-.037.222-.01zm-35.415.095c.772.662-.252 2.504-.223 3.602-.456 1.176-.055 4.181-2.112 3.735-1.994-.9-.559-3.359-.176-4.794.113-1.349 1.403-2.044 2.511-2.543zm38.394.877c1.047.327 2.864.13 2.708 1.733.604 1.102.357 3.257-1.3 2.891-1.376-.863-1.358-2.896-1.827-4.292-.03-.203.24-.365.42-.332zM31.84 86.166c.509.8-.304 2.23-.919 2.97-1.007.87-2.824-1.132-1.276-1.7.72-.366 1.431-1.21 2.195-1.27zm22.454.048c.667 2.608.782 5.556 1.854 8.142.565 1.594-2.2 1.925-2.552.46-.577-2.4-1.21-5.02-.11-7.386.202-.42.139-1.534.808-1.216zm4.703.62c1.031 1.99 2.644 3.76 3.52 5.783-.234 1.668-2.57 1.505-3.153.124-.628-1.864-.991-4.013-.898-5.955.188-.025.452-.32.531.048zm-6.453 6.085c.462.996.409 2.752-1.087 2.595-.531-.677.196-2.08.615-2.787.339-.307.407-.17.472.192z" fill="#62687c"/><path d="M51.261 26.257c-1.078.48.403 1.942.287 2.797 1.68 7.094 1.272 14.49.537 21.68 1.385-1.216.533-3.473.967-5.103.287-6.265.456-12.722-.781-18.852-.186-.369-.589-.63-1.01-.522zm3.803.307c-1.269.285-.048 1.992-.266 2.837.67 6.123.616 12.312.148 18.448 1.325-1.013 1.95-2.3 1.726-3.963.136-5.7.327-11.594-1.217-17.113-.084-.131-.228-.239-.391-.21zm-6.65.238c-1.227.535.289 2.242.117 3.247 1.219 8.038.685 16.25-.415 24.271 1.277-.762 2.04-1.897 1.898-3.45.758-7.922 1.454-16.26-1.28-23.864-.064-.112-.18-.224-.32-.204zm10.028.037c-1.401.23-.061 2.007-.252 2.877.688 4.593.696 9.367.552 13.926 2.217-1.81 1.197-4.83 1.459-7.336-.112-3.024.1-6.23-.996-9.09-.173-.238-.462-.408-.763-.377zm-12.419 1.363c-1.18 1.262.012 3.376-.151 4.94.33 3.264.752 6.533 1.254 9.778.088-4.914.162-9.987-1.103-14.718zm-3.11.828c-2.092.803-.377 3.514-.552 5.154.705 5.082 1.617 10.117 2.683 15.134 2.177.864.558-1.99.61-3.233-.994-5.558-1.56-11.22-2.17-16.803a.705.705 0 00-.572-.252zm20.713 1.424c-1.268.481-1.498 2.428-1.413 3.655-.037 1.673.01 2.583.752.514.32-1.266 1.746-2.28 1.697-3.561a1.088 1.088 0 00-1.036-.608zm-26.415.377c-1.523.677.15 2.419.242 3.518 1.422 4.365 2.193 8.91 2.756 13.456 1.364 1.335.052-2.501.23-3.378-.667-4.572-1.189-9.422-3.09-13.606h-.05zm32.34.455c-1.907 3.744-4.228 7.543-6.952 10.871-5.867 7.594-13.066 14.013-20.72 19.753-4.741 3.972-9.802 7.55-15.38 10.261-1.941 1.222-4.284 2.094-5.96 3.562.255 1.528 2.456.067 3.341-.135 10.48-4.959 19.607-12.383 28.19-20.06 7.112-6.814 14.478-14.097 18.024-23.503.18-.467.026-.87-.544-.75zm-29.403 1.848c.61 2.168-.394-2.182-.307-1.014l.307 1.014zm-5.924-.876c-.856.655.469 1.94.44 2.819 1.06 3.11 1.418 6.487 2.344 9.568 1.552 2.224.946-.062.702-1.425-.75-3.641-1.31-7.544-3.082-10.81-.112-.09-.255-.179-.404-.152zm37.995.354c-1.127 2.27-2.095 4.887-3.606 7.053-7.54 11.45-18.092 20.556-28.98 28.717-5.45 3.877-11.058 7.818-17.416 10.023-.98 1.104.959 2.596 1.864 1.279 16.267-9.43 31.1-21.608 42.775-36.414 2.232-3.119 4.752-6.171 6.239-9.706.076-.496-.362-1.013-.876-.952zm-6.564.76c.97-.2-.675-.976 0 0zm-33.921-.044c-1.096.656.64 2.008.677 2.94.936 1.77.85 4.042 2.06 5.59-.672-2.847-1.17-5.921-2.42-8.51a.698.698 0 00-.317-.02zM29.4 34.669c-1.044.634.546 2.254 1.039 2.865 1.418 1.854.226-.68-.087-1.491-.302-.395-.34-1.328-.952-1.374zm45.402.49c-9.469 15.832-23.42 28.523-38.354 39.128-4 2.888-8.34 5.315-12.476 7.95-.617 1.313 1.385 1.677 2.074.746 15.781-9.991 30.75-21.717 42.584-36.268 2.597-3.472 5.41-7.027 6.954-11.065.081-.439-.457-.558-.782-.491zm-10.37.94c-.187.718.69-1.541 0 0zm-37.38 1.012c-1.725 1.198.324 3.207 1.147 4.323 1.915 2.303 4.046 4.428 6.273 6.426 1.892.289 4.29.847 1.809-1.026-3.097-3.202-5.953-6.756-9.23-9.723zm50.229.302c-6.547 11.82-16.374 21.554-26.636 30.245-7.604 6.44-15.835 12.221-24.19 17.547-.38 1.41 1.81 1.59 2.425.62 14.601-9.95 28.236-21.42 40.196-34.455 3.393-4.006 7.11-8.02 9.19-12.89.131-.583-.386-1.17-.985-1.067zM24.303 40.05c-1.733.91.206 2.694 1.097 3.434 1.479 1.217 2.664 3.08 4.365 3.886 2.528.642-.298-1.27-.962-2.185-1.636-1.512-2.832-3.529-4.256-5.135a1.553 1.553 0 00-.244 0zm54.45 2.827c-1.34 1.065-2.187 2.561-3.217 3.897 1.178-1.116 3.657-1.633 3.781-3.459-.105-.2-.311-.458-.563-.438zm-56.86.092c-1.737 1.09.194 2.831 1.216 3.626 1.858.802 4.187.616 1.376-1.15-.878-.798-1.656-1.764-2.592-2.476zm58.182 3.088c-1.656 1.341-3.841 2.337-5.297 3.73-.688 2.284 1.179.473 2.262-.177 1.118-1.047 3.142-1.672 3.571-3.199-.113-.183-.313-.348-.536-.354zm-59.915.626c.148-.006-.447-.021 0 0zm-2.719 1.968c-1.134.198-1.344 2.298.158 1.875 9.594.049 19.18.805 28.672 2.182.881-1.915-1.975-1.092-2.966-1.599-8.56-1.25-17.213-2.268-25.864-2.458zm63.843.291c-1.479 1.088-2.941 2.208-4.498 3.188 1.756-.368 4.937-.317 5.135-2.666-.109-.236-.337-.564-.637-.522zm-9.11 2c-.845 1.117-.428 2.883-.592 4.149 1.7.953.825-1.796 1.166-2.84 0-.959.592-3.212-.574-1.31zm-55.63 1.678c-1.372.336-.572 2.236.647 1.748 9.547-.31 19.115.293 28.56 1.7.937-1.951-1.553-1.451-2.82-1.758-8.745-1.119-17.578-1.813-26.388-1.69zm66.523.065c-2.804.903-5.717 1.434-8.647 1.716-.577 1.734 1.068 1.146 2.167.97 2.308-.516 4.968-.823 6.89-2.215-.027-.185-.193-.486-.41-.471zM69.43 54.04c.06 1.938.862-1.417 0 0zm-55.532-.245c.613.016.852-.11 0 0zm69.828 1.633c-1.956.747-3.964 1.37-6.028 1.736 1.893.992 4.07-.019 5.996-.441.55-.14.716-1.358.032-1.295zm-16.191.649c-1.982 1.239.732 1.27 1.74 1.753a79.093 79.093 0 0115.824 6.809c1.592-1.023-.684-2.326-1.658-2.738-5.005-2.59-10.47-4.337-15.906-5.824zm-48.19.281c-1.226-.117-4.282-.212-3.018 1.855 1.242.629 2.789-.518 4.18-.392 7.478-.793 15.08 0 22.483.59 1.767-1.112-2.216-.67-3.05-1.048a153.18 153.18 0 00-20.595-1.005zm45.488 2.477c-1.628 1.042-.29 1.343 1.05 1.63A100.792 100.792 0 0184.22 67.84c1.447-.928-1.081-1.816-1.741-2.293-5.498-3.043-11.454-5.19-17.501-6.847zm18.651.046c-1.812-.054-.527.724.396.848.439-.231.081-1.094-.396-.848zm-58.04.68c-2.894.183-5.995.006-8.67 1.26-.764 1.294 1.349.98 2.06.922 6.608-.188 13.254-1.01 19.828.097 1.751-1.088 2.32-1.917-.233-1.754-4.318-.396-8.643-.602-12.984-.525zm36.578 2.02c-.936.796 1.787.646 2.266 1.09 6.686 1.92 13.416 4.393 18.93 8.721 1.548-.891-.645-2.249-1.55-2.524-6.185-3.15-12.915-5.677-19.646-7.287zM29.84 63.3c-3.96.197-8.07.333-11.943.562.182 1.908 2.7.553 3.874.714 2.911-.335 5.784-.76 8.663-1.29l-.34.008zm2.938.231c-.04 1.336-.607 3.771 1.109 1.973.32-.935.467-2.632-1.071-2.174h-.023zm26.923.255c-.673.423-.658 1.583.412 1.369 7.465 2.013 15.052 4.387 21.484 8.785 1.443-.52-.637-1.576-1.12-2.02-6.143-4.261-13.423-6.487-20.602-8.295zm-28.867 1.426c-4.081.837-8.325 1.119-12.373 1.814-1.06 1.212 1.044 1.854 1.937 1.307 3.462-.548 7.103-.99 10.409-1.836.006-.404.103-.949.027-1.285zm25.37 1.769c-1.585 1.231-1.065 3.709-1.828 5.438-1.85 8.05-4.49 15.948-7.08 23.737.787 1.276 2.421-.15 2.332-1.29 3.06-9.31 5.338-18.842 7.212-28.455l-.636.57zm2.41 1.022c-.08 1.126 2.03 1.204 2.734 1.932 5.93 2.988 12.094 5.853 18.61 7.157.964.108 1.306-1.756.038-1.335-7.67-.638-14.671-4.364-21.382-7.754zm5.483.475c3.912 1.93 7.93 3.648 12.183 4.636-4.048-2.04-8.329-3.563-12.643-4.87l.303.154zm-37.492.866c-2.368.523-4.943.576-7.216 1.254-.603 1.29 1.417 1.79 2.282 1.259 2.336-.1 4.112-1.796 6.152-2.73l-1.218.217zm25.38 1.342c-1.73 1.227-1.274 3.787-2.109 5.573-1.69 6.45-4.022 12.724-6.388 18.93.191 1.45 2.17.625 2.077-.59 2.95-8.04 5.375-16.307 7.29-24.665l-.87.752zm5.98.514c-.686 1.584 1.916 1.678 2.815 2.505 5.71 2.78 11.657 5.551 17.999 6.342 1.011-.614-.392-1.415-1.118-1.316-6.842-1.856-13.33-4.821-19.548-8.192l-.075.331zm-10.352 3.16c-1.405 3.07-2.053 6.633-3.418 9.807-1.152 3.233-2.703 6.366-4.465 9.265.092 1.347 2.141 1.277 2.2-.083 2.641-6.389 4.793-12.979 6.522-19.676l-.84.687zm9.603.294c-.5 1.343 1.778 1.403 2.508 2.155 5.404 2.724 10.912 5.639 16.922 6.608 1.185.037 1.278-1.916-.134-1.575-6.754-1.519-13.109-4.394-19.199-7.626l-.074.332zm-13.779 3.072c-2.113 1.356-2.147 4.245-3.397 6.254-1.055 2.735-2.559 5.44-3.288 8.227 1.03 1.086 1.916-1.206 2.418-1.855 2.356-4.243 3.884-8.881 5.354-13.488l-1.087.862zm13.127-.253c-.928 2.977-1.367 6.006-.784 9.088.416 2.478.577 5.363 1.945 7.518 1.209-.404-.256-2.07-.103-2.98-.854-4.457-.858-9.045-.823-13.546.088.327-.256-.274-.235-.08zM61.3 80.86c.407.581 1.72 4.164 1.405 2.073-.317-1.168-.792-2.758-1.976-3.3l.571 1.227zm-2.551.338c-.25 3.214 2.257 5.758 3.72 8.436.266.445 1.545 2.22 1.411 1.707-.683-1.371-.364-3.067-1.558-4.246-1.312-2.303-2.49-4.68-3.58-7.094 0 .399.007.798.007 1.197zm-19.244-1.078c.069.923 1.087-.205 0 0zm24.923 1.61c.364 2.928.256 6.091 1.15 8.85.523.816 1.778.355 1.187-.67-.44-2.63-.785-5.29-1.136-7.92-.219.107-1.465-1.047-1.201-.26zm-27.166.714c-1.253 1.213-.755 3.45-1.344 5.072-.81 3.309.424-.149 1.05-1.55.374-.594 1.949-5.184.294-3.522zm30.34.598c.442 2.564.566 5.38 1.247 7.878 1.398.75 1.412-1.406.95-2.188-.37-1.795-.668-3.603-.979-5.408-.22.076-1.366-.847-1.217-.282zm3.34 1.906c.502 1.63.273 3.795 1.285 5.124 1.86-.613.146-2.812-.007-4.08.29-1.11-1.73-3.073-1.28-1.044zm-37.05-.07c-.913 1.13-1.196 2.955-1.497 4.404.197 1.31 1.757.696 1.419-.51.127-1.266 1.037-3.83.544-4.222l-.277.195zm40.117.761c.437.642.33 2.812 1.516 2.474.7-.723-.155-1.877-.162-2.748-.494.12-2.094-1.065-1.354.274zm-49.4-.42c-.333.69.933-.49 0 0zm6.128 1.828c-.876.14-1.437 1.309-.268 1.105.253-.228 1.015-1.81.268-1.105zm22.982 1.44c-.464 1.9-.022 4.096.631 5.904.437.646 1.746.058.948-.72-.668-1.94-1.081-3.96-1.351-5.994l-.228.81zm5.45-.178c.353 1.414.043 4.635 2.24 4.338 1.093-.857-1.034-1.921-1.169-2.847-.198-.084-1.223-2.342-1.072-1.491zm-7.184 5.905c.168-.041.018-.507 0 0z" fill="#dca2ac"/><path d="M-805.803 409.58c-21.542 29.469-44.016 48.413-63.702 57.66-5.009-2.477-10.138-5.83-13.687-8.875l2.455-1.44c-2.566-2.39-6.408-6.244-8.5-9.138l-1.976.183c-4.543-4.99-7.6-14.813-9.065-21.946a9.555 9.555 0 012.011-.06 57.803 57.803 0 01-.58-4.08l-.045-.05-.113.04c-.666.24-1.025.462-1.49.926a4.231 4.231 0 00-.991 1.551c-.046.123-.11.246-.14.271-.032.025-.234.073-.451.106-.666.1-1.142.297-1.834.76a4.588 4.588 0 00-1.61 1.847c-.331.68-.41 1.018-.41 1.8 0 .545.013.69.093.968.094.328.278.746.488 1.11l.112.194-.458.447c-.631.617-.96 1.147-1.178 1.903-.08.278-.093.42-.093 1.027 0 .85.041 1.034.39 1.742.21.424.303.56.601.879.195.207.354.39.354.406 0 .016-.103.182-.228.368-.624.929-.878 1.918-.767 3.002.058.565.167.954.412 1.465.229.478.439.773.89 1.252l.323.342-.21.32c-.467.713-.602 1.165-.602 1.975 0 .516.016.619.117.932.23.707.489 1.127.99 1.603.281.267.815.631.925.631.026 0 .072.026.105.06.047.046.051.11.021.32-.096.652.066 1.681.36 2.302.18.378.499.84.745 1.082.103.101.188.218.188.26 0 .041-.103.223-.229.402a4.193 4.193 0 00-.588 1.21c-.055.2-.069.422-.069.944 0 .63.011.71.116 1.034a4.083 4.083 0 001.636 2.133c.136.087.257.183.269.214.012.03-.026.162-.084.293a3.452 3.452 0 00-.293 1.25c-.061 1.105.335 2.088 1.184 2.944.557.562 1.176.938 1.967 1.194.398.128.411.145.3.381-.066.137-.166.247-.341.375a3.357 3.357 0 00-1.2 1.748c-.106.39-.128 1.218-.043 1.637.228 1.125.93 1.987 2.04 2.502.165.076.3.158.3.182 0 .024-.05.225-.11.447-.096.356-.11.482-.109 1.046 0 .713.08 1.12.341 1.747.41.983 1.336 1.925 2.275 2.311.454.187.446.172.351.605-.112.515-.104 1.311.017 1.805a3.92 3.92 0 001.112 1.893c.636.604 1.283.922 2.183 1.073l.416.069.049.535c.026.294.08.656.117.803.327 1.259 1.367 2.327 2.71 2.785.602.205.916.253 1.757.253h.784l.211.419c.263.52.57.91.967 1.225.753.599 1.614.837 2.451.679.538-.102.514-.11.62.212.36 1.105 1.021 1.897 1.956 2.346.705.34 1.622.408 2.315.173.177-.06.338-.108.359-.108.02 0 .05.06.065.134.211.999.749 1.808 1.56 2.35.221.149.425.323.498.425.19.27.606.682.87.863a4.07 4.07 0 001.105.519c.377.104 1.323.102 1.693 0 .21-.058.286-.063.356-.025.052.027.188.242.322.51a4.467 4.467 0 002.91 2.352c.306.077.486.094 1.07.094.608 0 .756-.012 1.087-.096.312-.08.396-.088.446-.046.034.028.15.219.255.423.105.204.273.48.373.612.496.66 1.296 1.174 2.198 1.41.244.065.453.086.897.086.811 0 1.234-.104 1.988-.5.206-.109.396-.191.422-.181.026.01.152.146.28.305.526.65 1.353 1.14 2.256 1.336.559.121 1.53.055 2.151-.147.723-.235 1.446-.69 2.028-1.275.47-.472.613-.704.875-1.418.108-.298.217-.561.242-.587.028-.028.268-.05.633-.05.497 0 .65-.022.991-.113.222-.06.585-.13.807-.153a5.55 5.55 0 00.652-.11c.447-.117.45-.117.71.06.337.229.77.441 1.133.556.273.086.39.097 1.013.097.622 0 .739-.011 1.012-.097.57-.18.98-.422 1.46-.863.158-.144.31-.261.339-.261.029 0 .172.054.318.117.344.155.555.204 1.009.235 1.285.09 2.561-.698 3.171-1.956.113-.233.223-.424.242-.424.02 0 .188.057.374.124 1.684.621 3.423.044 4.457-1.477.27-.398.239-.389.726-.203.154.059.455.127.667.152.942.112 1.79-.19 2.557-.907l.271-.254.244.047c.37.07 1.107.06 1.422-.022a3.26 3.26 0 00.988-.456c.315-.23.346-.23.695.015.678.473 1.27.647 2.08.61 1.15-.051 2.07-.595 2.805-1.657.073-.106.165-.194.202-.194.037 0 .239.06.446.135.363.133.401.133.998.133.594 0 .639-.01 1.026-.14 1.07-.367 1.95-1.308 2.282-2.444.104-.358.095-.352.423-.286.357.07 1.082.07 1.38 0 .568-.137 1.289-.576 1.707-1.039.423-.469.654-.956.782-1.65l.081-.44-.374-1.837c-.265-1.303-.362-1.851-.332-1.889.024-.028.177-.085.341-.124.656-.158 1.262-.425 1.645-.726a4.264 4.264 0 001.49-2.21c.11-.405.155-1.339.086-1.786-.023-.164-.036-.324-.023-.356.013-.032.163-.12.334-.195 1.014-.446 1.683-1.218 1.989-2.298.1-.35.118-1.185.036-1.67-.057-.339-.061-.437-.02-.486.028-.034.202-.134.386-.223.513-.247.802-.457 1.21-.88.531-.548.892-1.236 1.031-1.966.067-.356.077-1.181.017-1.5-.02-.121-.032-.25-.02-.286.012-.036.183-.158.38-.271.409-.237.94-.715 1.17-1.053.434-.64.588-1.145.579-1.886v-.543c0-.025.11-.097.24-.159 1.034-.489 1.764-1.349 2.107-2.484.1-.332.113-.437.112-.972 0-.71-.062-1.032-.3-1.593a3.136 3.136 0 01-.167-.445c0-.028.141-.152.311-.276.414-.299.92-.833 1.124-1.186.596-1.029.647-1.952.172-3.059a3.216 3.216 0 01-.16-.42c0-.027.116-.132.259-.234.679-.486 1.216-1.234 1.504-2.098.117-.338.118-.383.117-1.138 0-.78 0-.79-.136-1.179-.426-1.236-1.236-2.114-2.81-3.046-.256-.152-.465-.292-.465-.314 0-.02.089-.147.196-.281.276-.341.454-.648.58-1 .1-.277.11-.36.11-.924 0-.488-.015-.68-.076-.89-.114-.394-.321-.799-.624-1.22a4.97 4.97 0 01-.233-.345 69.746 69.746 0 01-2.21 3.87l2.405 1.766c-3.658 6.117-10.281 12.698-14.84 15.104l-2.104-.573c-3.067 3.036-13.218 9.821-19.339 10.985l-4.28-1.743a50.257 50.257 0 01-4.228.307l-.91 1.764c-3.793 0-8.652-.71-12.53-2.047.953-.88 2.101-1.27 3.307-1.516 1.89-3.755 4.37-5.596 7.266-6.078 1.482-2.967 2.728-6.574 5.905-4.939l-.411 2.595c1.385-1.918 2.662-4.217 4.527-4.459l1.432-1.41-1.375-.517c.234-3.264 1.795-4.369 4.04-4.369-.012-1.84.995-2.915 2.999-3.243.72-2.239 1.795-4.121 4.264-4.611.474-2.374 1.95-3.347 3.673-3.973l1.41.641c1.08-2.6 2.034-5.257 4.822-7.126l4.098-6.313c1.242-2.669 1.752-5.642 5.857-7.118l-1.875-2.07c.845-3.301.915-4.859 1.073-6.616zm7.908 30.172l-.662 1.135c.3-.365.52-.738.662-1.135z" opacity=".218" fill="url(#b)" transform="matrix(.64128 0 0 .64128 596.27 -224.803)"/></svg>