<?xml version="1.0" standalone="no"?>
<!DOCTYPE svg PUBLIC "-//W3C//DTD SVG 20010904//EN"
 "http://www.w3.org/TR/2001/REC-SVG-20010904/DTD/svg10.dtd">
<svg version="1.0" xmlns="http://www.w3.org/2000/svg"
 width="700.000000pt" height="700.000000pt" viewBox="0 0 700.000000 700.000000"
 preserveAspectRatio="xMidYMid meet">
<metadata>
Created by potrace 1.11, written by Peter Selinger 2001-2013
</metadata>
<g transform="translate(0.000000,700.000000) scale(0.100000,-0.100000)"
fill="#000000" stroke="none">
<path d="M5087 6982 c-107 -49 -330 -295 -407 -450 -36 -73 -38 -105 -6 -137
29 -29 60 -24 151 24 33 17 61 27 63 21 7 -20 -46 -117 -109 -200 -35 -47
-112 -134 -171 -195 -106 -110 -154 -168 -196 -236 -24 -40 -242 -526 -242
-540 0 -5 20 -9 45 -9 25 0 45 4 45 9 0 24 194 444 232 501 23 35 90 114 149
175 182 187 245 266 304 379 46 89 48 145 6 187 -36 36 -83 38 -142 8 l-41
-20 23 41 c54 96 218 281 313 354 84 63 145 40 131 -51 -12 -81 -50 -165 -245
-548 -322 -632 -527 -1053 -518 -1060 2 -1 21 -5 44 -8 l41 -7 48 103 c27 56
77 163 113 237 35 74 84 176 107 225 65 137 171 357 290 600 184 376 212 464
172 541 -33 65 -124 90 -200 56z"/>
<path d="M3415 5440 c-15 -16 -16 -26 -7 -57 47 -176 61 -235 66 -269 4 -22 8
-49 10 -59 5 -25 13 -89 23 -180 16 -144 7 -811 -12 -915 -1 -8 -6 -51 -10
-95 -4 -44 -9 -83 -12 -87 -9 -16 13 -7 38 16 56 49 56 49 74 301 25 352 21
819 -10 1080 -23 204 -37 255 -74 275 -31 16 -66 12 -86 -10z"/>
<path d="M3660 5422 c-21 -17 -22 -20 -10 -117 15 -122 16 -135 27 -260 10
-129 10 -791 0 -960 l-8 -130 63 65 c93 95 88 85 95 227 12 232 4 757 -12 782
-1 3 -6 35 -9 71 -3 36 -8 79 -11 95 -7 41 -14 83 -21 130 -8 57 -32 102 -57
109 -31 8 -32 8 -57 -12z"/>
<path d="M3217 5399 c-13 -18 -12 -31 5 -107 25 -112 25 -108 33 -167 26 -184
33 -333 30 -635 -2 -179 -6 -352 -9 -385 -3 -33 -8 -89 -11 -125 -16 -168 -15
-154 -36 -310 -6 -47 -12 -97 -14 -112 l-3 -28 27 20 c14 10 50 41 79 67 l53
48 14 115 c31 242 40 401 40 720 0 251 -7 423 -20 470 -2 8 -6 35 -9 60 -13
103 -59 287 -87 348 -17 35 -26 42 -49 42 -18 0 -34 -8 -43 -21z"/>
<path d="M3881 5404 c-21 -15 -22 -21 -16 -71 7 -54 11 -83 20 -133 2 -14 7
-56 11 -95 3 -38 8 -73 10 -76 9 -16 18 -312 17 -543 -1 -209 1 -256 11 -245
100 110 116 136 121 190 8 80 8 523 0 604 -3 39 -8 88 -10 110 -6 70 -25 173
-36 202 -25 67 -79 91 -128 57z"/>
<path d="M3095 5328 c-34 -15 -48 -48 -46 -107 0 -31 3 -65 5 -76 2 -11 7 -56
10 -100 4 -44 9 -96 11 -115 2 -19 7 -60 10 -90 10 -96 27 -226 51 -390 2 -19
9 -67 15 -107 5 -39 11 -80 13 -90 2 -10 7 -38 12 -63 l8 -45 6 50 c8 65 4
705 -4 770 -23 184 -56 360 -69 371 -1 1 -11 -3 -22 -8z"/>
<path d="M2875 5272 c-11 -2 -31 -17 -44 -34 -24 -30 -28 -66 -16 -156 4 -32
22 -165 31 -232 3 -19 7 -46 9 -60 3 -14 7 -43 11 -65 32 -227 143 -818 156
-831 2 -2 22 -6 44 -9 21 -3 44 -8 51 -10 7 -2 15 0 19 6 5 9 -8 104 -31 219
-12 64 -71 458 -85 570 -6 52 -13 111 -16 130 -3 19 -7 60 -9 90 -3 30 -7 71
-10 90 -2 19 -7 64 -10 100 -3 36 -8 87 -11 113 -6 65 -33 89 -89 79z"/>
<path d="M4222 5163 c-11 -10 -32 -49 -46 -87 -26 -65 -27 -76 -25 -228 2 -87
6 -155 10 -151 4 5 21 42 39 83 38 88 115 235 142 269 21 27 23 69 5 92 -31
40 -92 51 -125 22z"/>
<path d="M2503 5150 c-12 -5 -29 -20 -38 -34 -17 -25 -15 -31 33 -178 67 -201
132 -469 157 -643 6 -45 13 -86 20 -130 3 -16 8 -59 12 -94 6 -59 10 -68 47
-102 41 -38 57 -42 52 -11 -2 9 -7 53 -10 97 -4 44 -9 87 -11 95 -2 8 -6 44
-10 80 -3 36 -7 76 -10 90 -2 13 -7 44 -10 69 -3 25 -7 55 -9 66 -2 11 -7 43
-11 70 -5 28 -9 52 -10 55 -1 3 -5 25 -9 50 -29 170 -117 483 -143 513 -18 19
-19 19 -50 7z"/>
<path d="M2640 5151 c0 -5 16 -59 35 -121 19 -61 37 -121 39 -133 2 -12 9 -40
14 -62 6 -22 23 -96 37 -165 14 -68 30 -129 35 -134 11 -11 10 -1 -15 154 -7
47 -16 105 -20 130 -22 172 -28 199 -58 258 -28 57 -67 99 -67 73z"/>
<path d="M4648 5123 c-9 -2 -37 -46 -63 -100 -164 -343 -488 -765 -910 -1188
-249 -250 -307 -300 -845 -726 -474 -377 -544 -424 -885 -609 -33 -18 -73 -40
-90 -50 -33 -19 -99 -56 -185 -103 -150 -82 -261 -151 -271 -168 -7 -14 -6
-27 3 -47 10 -21 21 -28 51 -30 109 -9 477 174 847 421 126 85 449 314 460
327 3 3 43 35 90 70 47 36 87 67 90 70 3 3 41 34 85 70 92 74 328 275 395 335
131 119 179 164 330 315 333 332 555 597 740 885 110 171 230 425 230 486 0
21 -26 50 -43 48 -7 -1 -20 -3 -29 -6z"/>
<path d="M2290 5045 c-15 -18 -15 -16 48 -235 27 -96 60 -218 71 -270 23 -103
23 -104 47 -231 15 -86 16 -87 79 -149 36 -35 67 -62 70 -59 3 3 0 30 -5 60
-5 30 -12 68 -14 84 -2 17 -9 62 -16 100 -6 39 -14 84 -17 100 -3 17 -23 101
-44 188 -52 204 -114 387 -141 410 -25 21 -61 22 -78 2z"/>
<path d="M4806 5018 c-7 -13 -22 -45 -32 -73 -55 -155 -228 -448 -387 -655
-404 -528 -1029 -1116 -1728 -1626 -416 -303 -836 -551 -1059 -624 -41 -14
-83 -34 -93 -44 -42 -46 2 -146 65 -146 29 0 150 65 353 188 97 60 497 322
505 332 3 3 52 39 110 80 127 90 375 279 485 369 110 90 340 286 394 335 25
23 72 66 105 96 103 93 517 509 612 615 231 257 435 520 610 786 134 202 174
279 168 316 -5 33 -47 73 -74 73 -11 0 -26 -10 -34 -22z"/>
<path d="M2126 4974 c-22 -22 -20 -40 13 -111 30 -63 94 -244 131 -368 15 -50
32 -83 61 -115 l40 -45 -4 35 c-25 175 -145 603 -173 614 -27 10 -52 7 -68
-10z"/>
<path d="M4332 4858 c-108 -220 -126 -271 -73 -204 63 79 94 139 117 227 14
50 23 93 21 96 -2 2 -31 -52 -65 -119z"/>
<path d="M1966 4879 c-15 -22 -15 -25 22 -109 16 -38 181 -227 182 -209 1 29
-94 271 -122 312 -23 33 -61 36 -82 6z"/>
<path d="M4976 4848 c-8 -13 -40 -66 -72 -118 -96 -157 -244 -371 -361 -520
-34 -44 -149 -186 -153 -190 -3 -3 -30 -34 -60 -70 -54 -64 -73 -86 -195 -219
-160 -177 -535 -540 -745 -722 -527 -458 -1130 -889 -1680 -1202 -66 -37 -89
-59 -94 -87 -8 -57 48 -105 105 -90 50 14 470 288 779 509 155 110 457 335
470 350 3 4 23 19 45 36 38 28 365 293 375 305 3 3 59 52 125 110 347 303 643
597 904 895 227 260 455 575 585 810 75 136 87 176 61 205 -25 27 -71 26 -89
-2z"/>
<path d="M1806 4709 c-50 -59 -31 -120 85 -269 89 -115 390 -424 433 -444 17
-8 58 -17 91 -21 89 -10 126 -14 165 -20 34 -6 33 -4 -60 91 -52 54 -104 107
-115 119 -38 42 -189 207 -213 233 -143 157 -327 342 -342 342 -10 0 -30 -14
-44 -31z"/>
<path d="M5124 4673 c-140 -245 -214 -360 -355 -548 -131 -175 -269 -340 -452
-539 -90 -98 -371 -375 -532 -526 -199 -185 -645 -559 -830 -695 -22 -17 -42
-32 -45 -36 -7 -8 -256 -191 -360 -265 -198 -141 -489 -336 -667 -448 -51 -31
-95 -66 -98 -77 -9 -28 11 -74 40 -89 56 -30 79 -23 228 78 349 235 773 556
1157 876 80 67 147 123 150 126 3 3 72 64 155 135 82 72 157 137 165 145 9 8
54 49 100 90 280 252 640 611 876 875 228 255 447 548 559 749 48 88 53 147
15 176 -14 11 -37 20 -52 20 -22 0 -32 -9 -54 -47z"/>
<path d="M1640 4536 c-33 -19 -50 -71 -37 -114 12 -39 377 -402 405 -403 9 0
47 -3 85 -8 37 -4 67 -4 67 -1 0 3 -42 48 -92 100 -139 142 -238 256 -301 347
-68 96 -81 104 -127 79z"/>
<path d="M1490 4347 c-32 -16 -50 -52 -50 -100 0 -34 8 -47 68 -109 37 -38 74
-74 83 -78 8 -5 62 -11 119 -15 57 -3 107 -8 112 -11 4 -3 8 0 8 5 0 6 -46 56
-102 111 -57 56 -128 125 -158 155 -51 51 -57 54 -80 42z"/>
<path d="M5203 4308 c-60 -62 -206 -264 -201 -278 3 -11 227 136 286 187 42
37 51 79 22 116 -12 15 -29 27 -39 27 -9 0 -40 -24 -68 -52z"/>
<path d="M2825 4275 c3 -22 8 -60 11 -85 9 -87 16 -113 41 -151 14 -22 27 -38
28 -37 2 2 -3 35 -11 73 -8 39 -19 95 -25 125 -6 30 -19 69 -30 85 l-20 30 6
-40z"/>
<path d="M5215 4059 c-71 -50 -137 -93 -145 -97 -43 -22 -81 -49 -85 -62 -2
-8 -7 -46 -11 -83 -7 -81 -19 -82 128 14 128 85 275 196 293 222 8 12 15 31
15 44 0 21 -34 54 -55 52 -5 0 -68 -41 -140 -90z"/>
<path d="M1333 4088 c-9 -10 -14 -18 -12 -19 2 0 33 -3 69 -6 l65 -5 -24 26
c-28 30 -72 32 -98 4z"/>
<path d="M1166 3950 c-29 -26 -36 -39 -36 -69 0 -67 3 -68 300 -76 359 -9 387
-10 655 -30 33 -2 101 -7 150 -10 50 -3 101 -7 115 -10 14 -2 61 -7 104 -10
43 -4 86 -8 95 -10 9 -1 51 -6 94 -10 43 -3 88 -8 100 -10 38 -7 310 -42 371
-48 22 -2 33 25 35 81 1 22 -4 32 -14 33 -8 1 -18 2 -22 3 -5 1 -30 6 -58 11
-27 5 -52 9 -55 10 -5 1 -111 16 -147 20 -13 2 -40 6 -60 9 -47 8 -54 9 -293
40 -107 13 -224 28 -260 31 -36 4 -76 8 -90 10 -61 6 -155 15 -212 20 -35 3
-79 8 -98 10 -19 2 -84 7 -145 11 -60 3 -130 8 -155 9 -25 2 -111 6 -192 10
l-146 6 -36 -31z"/>
<path d="M5330 3889 c-52 -39 -132 -95 -177 -125 -77 -51 -106 -82 -65 -70 9
3 35 7 57 11 125 18 237 44 260 60 90 61 115 117 75 168 -12 15 -29 27 -38 27
-9 -1 -60 -33 -112 -71z"/>
<path d="M4847 3858 c-29 -35 -57 -71 -60 -82 -4 -10 -10 -73 -13 -141 l-7
-122 24 -7 c89 -27 89 -27 90 13 2 98 16 295 25 359 4 23 4 42 1 42 -3 0 -30
-28 -60 -62z"/>
<path d="M1134 3711 c-26 -11 -54 -49 -54 -73 0 -29 22 -67 42 -74 11 -3 220
-7 466 -9 246 -2 474 -6 507 -9 70 -5 211 -16 275 -21 83 -6 185 -16 220 -20
19 -3 60 -7 90 -10 71 -7 129 -14 310 -40 57 -8 106 -13 107 -11 9 8 19 64 19
95 -1 22 -6 35 -16 37 -55 10 -107 17 -285 38 -110 14 -229 28 -265 31 -36 4
-76 9 -90 10 -14 2 -59 6 -100 9 -134 11 -214 18 -250 21 -35 3 -231 15 -345
20 -193 10 -613 13 -631 6z"/>
<path d="M5470 3689 c-36 -11 -96 -27 -135 -35 -135 -30 -167 -35 -307 -50
-38 -3 -68 -9 -69 -13 0 -3 -2 -32 -4 -65 l-3 -58 61 6 c189 19 504 102 562
148 29 22 32 50 9 72 -19 20 -33 19 -114 -5z"/>
<path d="M4662 3647 c-44 -45 -47 -87 -9 -100 16 -5 31 -7 33 -4 6 6 16 137
11 137 -2 0 -18 -15 -35 -33z"/>
<path d="M5470 3489 c-63 -21 -162 -49 -220 -60 -58 -12 -109 -25 -113 -29 -4
-4 26 -19 68 -35 66 -24 83 -26 133 -19 31 4 64 9 72 10 61 8 179 38 198 50
33 21 46 61 31 96 -15 36 -27 35 -169 -13z"/>
<path d="M4471 3443 c-22 -26 -37 -51 -33 -54 4 -4 50 -19 102 -34 338 -98
723 -253 992 -400 75 -41 145 -75 156 -75 43 0 71 64 48 108 -50 96 -566 318
-1076 462 -78 22 -144 40 -146 40 -1 0 -21 -21 -43 -47z"/>
<path d="M1165 3463 c-38 -9 -65 -44 -65 -84 0 -51 8 -67 39 -83 23 -12 39
-12 116 5 166 34 296 43 620 43 228 0 529 -10 574 -19 9 -2 55 -6 103 -10 49
-3 96 -8 105 -9 10 -2 54 -7 98 -11 44 -3 94 -8 110 -11 24 -4 42 4 84 35 49
37 51 40 30 45 -55 12 -173 27 -309 41 -30 3 -68 8 -85 10 -16 2 -68 7 -115
10 -47 4 -96 8 -109 10 -14 3 -72 7 -130 10 -58 4 -124 9 -146 12 -54 6 -895
12 -920 6z"/>
<path d="M4290 3258 l-51 -53 93 -28 c249 -77 336 -105 498 -164 233 -85 430
-169 629 -269 138 -69 168 -80 187 -72 29 14 44 47 32 74 -23 50 -352 226
-643 342 -229 92 -627 222 -679 222 -8 0 -38 -24 -66 -52z"/>
<path d="M5555 3299 c-16 -5 -48 -11 -70 -15 -22 -3 -42 -7 -43 -9 -7 -7 149
-76 164 -73 27 5 40 33 29 64 -12 32 -40 44 -80 33z"/>
<path d="M1628 3255 c-2 -1 -41 -5 -88 -9 -170 -11 -285 -31 -353 -60 -62 -25
-70 -94 -14 -115 12 -5 49 -7 82 -5 33 1 130 5 215 9 85 3 216 9 290 12 191
10 520 9 615 -1 44 -4 96 -9 115 -11 19 -2 57 -6 83 -9 48 -6 50 -5 133 60 46
36 82 69 79 73 -2 5 -49 12 -102 16 -54 4 -105 8 -113 10 -8 1 -64 6 -125 9
-60 4 -130 9 -155 12 -48 5 -657 13 -662 9z"/>
<path d="M4131 3104 c-17 -14 -31 -29 -31 -33 0 -4 46 -20 103 -36 589 -161
1032 -356 1303 -572 23 -18 48 -33 57 -33 25 0 57 40 57 71 0 51 -42 83 -232
177 -304 151 -650 284 -1036 397 -102 30 -186 55 -188 55 -1 0 -16 -12 -33
-26z"/>
<path d="M1887 3004 c-2 -2 -173 -10 -442 -20 -93 -3 -181 -7 -195 -8 -22 -1
-25 -5 -24 -39 2 -57 23 -72 97 -71 62 0 189 12 217 19 8 2 40 7 71 9 57 6
113 13 159 21 14 3 41 7 60 10 19 3 60 10 90 15 30 5 73 12 95 15 85 12 110
21 113 39 3 16 -6 17 -117 15 -67 -1 -122 -4 -124 -5z"/>
<path d="M2208 2998 c-3 -7 -6 -42 -7 -78 -1 -36 -4 -89 -6 -117 -1 -29 0 -53
3 -53 3 0 34 19 69 41 l63 41 1 67 c1 64 0 93 -5 99 -2 1 -28 5 -58 8 -41 4
-57 2 -60 -8z"/>
<path d="M3986 2965 c-14 -13 -26 -25 -26 -27 -1 -2 -3 -19 -6 -39 l-5 -35
178 -49 c515 -140 978 -327 1242 -502 80 -54 85 -56 110 -42 44 25 39 60 -14
107 -122 107 -394 259 -645 360 -103 41 -331 120 -465 162 -40 12 -332 90
-338 90 -2 0 -16 -11 -31 -25z"/>
<path d="M2410 2930 c0 -28 2 -30 20 -20 23 12 25 21 8 38 -20 20 -28 14 -28
-18z"/>
<path d="M2109 2886 c-2 -2 -23 -6 -46 -9 -23 -4 -95 -15 -160 -26 -65 -11
-156 -25 -203 -31 -47 -6 -101 -12 -120 -15 -19 -2 -57 -7 -85 -10 -27 -3 -72
-8 -100 -12 -27 -3 -62 -7 -76 -8 -39 -3 -68 -23 -75 -50 -15 -61 27 -106 96
-101 105 8 764 117 776 129 1 1 4 30 6 64 3 56 -2 80 -13 69z"/>
<path d="M3769 2767 c-59 -56 -67 -68 -79 -122 -7 -33 -31 -134 -52 -225 -22
-91 -42 -176 -44 -190 -3 -14 -9 -38 -14 -55 -8 -26 -44 -160 -55 -206 -31
-133 -221 -736 -319 -1011 -39 -109 -44 -132 -35 -157 21 -60 129 -48 162 16
37 71 190 589 281 952 55 216 140 577 151 642 3 19 15 72 25 119 10 47 21 98
24 114 7 40 26 136 32 164 2 12 1 22 -3 22 -5 0 -38 -28 -74 -63z"/>
<path d="M4091 2726 c7 -7 301 -153 374 -186 108 -50 271 -115 370 -148 86
-30 359 -102 380 -102 36 1 -180 112 -370 189 -71 29 -137 56 -145 60 -12 7
-426 142 -556 182 -31 9 -61 12 -53 5z"/>
<path d="M3916 2694 c-22 -57 -14 -63 239 -191 370 -188 764 -346 1069 -428
133 -36 183 -25 201 45 9 39 -13 59 -75 65 -55 6 -91 11 -165 21 -22 4 -84 17
-138 30 -302 75 -599 198 -1019 422 -53 29 -99 52 -101 52 -3 0 -8 -7 -11 -16z"/>
<path d="M1999 2646 c-4 -4 -37 -11 -134 -26 -33 -5 -69 -11 -80 -14 -18 -3
-75 -13 -130 -22 -11 -1 -79 -12 -150 -24 -72 -12 -139 -22 -149 -24 -10 -1
-25 -11 -32 -21 -46 -63 29 -141 120 -124 22 4 61 10 86 14 62 8 110 24 142
46 14 11 29 19 32 19 4 0 44 21 89 47 45 25 111 62 147 81 75 40 75 40 68 47
-2 3 -7 3 -9 1z"/>
<path d="M3540 2567 c-20 -17 -55 -49 -78 -69 -40 -36 -44 -44 -78 -175 -120
-464 -242 -842 -400 -1245 -84 -213 -86 -235 -26 -264 31 -15 38 -15 66 -1 46
21 55 42 187 437 56 168 105 319 110 335 4 17 25 91 47 165 39 132 100 350
107 380 2 8 20 80 40 160 50 197 74 310 67 310 -4 0 -23 -15 -42 -33z"/>
<path d="M3886 2531 c-2 -3 -10 -35 -17 -69 -13 -63 -13 -64 11 -82 36 -27
387 -201 527 -261 231 -99 442 -173 643 -225 146 -38 219 -45 244 -25 19 16
21 75 4 88 -7 5 -51 20 -98 32 -140 37 -325 100 -495 166 -215 85 -268 109
-563 256 -139 69 -254 124 -256 120z"/>
<path d="M3228 2302 c-54 -44 -59 -52 -83 -132 -154 -508 -309 -893 -439
-1094 -57 -87 -53 -128 13 -159 58 -28 102 -4 132 72 12 31 30 74 39 96 96
220 259 710 360 1085 24 85 45 161 47 168 9 22 -11 12 -69 -36z"/>
<path d="M3821 2238 c-9 -41 -9 -54 1 -64 34 -32 453 -245 653 -332 257 -112
520 -197 638 -207 52 -4 97 33 97 80 0 18 -6 37 -12 42 -7 6 -78 27 -158 47
-340 87 -680 222 -1057 418 -72 37 -136 68 -141 68 -6 0 -15 -23 -21 -52z"/>
<path d="M2930 2061 l-95 -78 -94 -224 c-52 -123 -104 -246 -116 -274 -46
-102 -155 -371 -159 -392 -3 -12 4 -30 16 -43 25 -27 71 -21 100 13 125 142
294 538 454 1060 3 9 2 17 -3 16 -4 0 -51 -35 -103 -78z"/>
<path d="M3745 1923 c-40 -160 -43 -191 -31 -353 13 -185 43 -358 87 -501 35
-117 54 -145 93 -135 15 4 29 13 33 22 3 8 -6 68 -20 132 -50 228 -67 418 -69
757 -1 181 -3 211 -17 222 -9 7 -21 13 -26 13 -6 0 -29 -71 -50 -157z"/>
<path d="M3921 1820 l0 -155 54 -100 c94 -178 241 -410 284 -449 22 -20 58
-28 66 -16 3 5 -3 22 -15 37 -11 16 -26 61 -33 103 -11 61 -26 97 -82 195 -38
66 -115 215 -171 330 l-103 210 0 -155z"/>
<path d="M4055 1896 c38 -86 175 -356 180 -356 5 0 0 85 -9 171 -2 14 -23 63
-47 109 -38 71 -50 85 -91 106 -26 13 -49 24 -52 24 -3 0 6 -24 19 -54z"/>
<path d="M4295 1788 c2 -18 6 -75 10 -127 4 -51 8 -101 10 -110 1 -9 6 -47 10
-86 15 -159 34 -277 46 -291 17 -21 64 -44 88 -44 45 0 48 37 16 235 -8 50
-17 109 -20 133 -3 23 -7 61 -10 85 -12 93 -26 181 -28 184 -4 3 -117 53 -121
53 -2 0 -2 -15 -1 -32z"/>
<path d="M2531 1755 c-34 -25 -63 -54 -66 -67 -2 -13 -9 -50 -15 -83 -5 -33
-12 -70 -14 -81 -2 -12 -7 -37 -10 -55 -3 -19 -15 -81 -26 -139 -21 -111 -25
-160 -12 -160 14 0 191 444 197 495 3 28 7 69 10 93 3 23 3 42 1 42 -2 0 -31
-20 -65 -45z"/>
<path d="M4506 1722 c-2 -4 -2 -14 -1 -22 1 -8 5 -42 9 -75 6 -57 9 -78 21
-150 3 -16 8 -50 11 -75 7 -54 10 -73 20 -125 4 -21 8 -51 9 -65 3 -44 5 -48
21 -64 41 -41 127 4 118 62 -7 46 -14 86 -19 112 -20 99 -46 244 -51 281 -4
24 -10 52 -13 63 -7 19 -118 70 -125 58z"/>
<path d="M4716 1641 c-2 -3 10 -76 25 -161 16 -85 32 -170 35 -189 9 -53 21
-79 43 -91 29 -15 76 11 89 50 12 32 12 31 -49 242 l-34 117 -53 19 c-28 11
-54 17 -56 13z"/>
<path d="M2312 1595 c-51 -37 -63 -51 -72 -87 -6 -24 -22 -75 -35 -115 -27
-78 -31 -119 -14 -156 11 -25 43 -45 67 -41 6 1 16 2 22 3 9 1 36 82 46 138 3
15 13 75 24 133 22 122 29 170 25 170 -1 0 -30 -20 -63 -45z"/>
<path d="M4918 1575 c-6 -7 22 -109 52 -187 22 -60 46 -77 88 -64 33 11 40 44
26 120 -21 106 -18 102 -89 120 -73 18 -70 18 -77 11z"/>
<path d="M2072 1432 c-39 -26 -72 -54 -72 -63 0 -23 33 -49 63 -49 21 0 31 8
45 38 23 44 46 112 40 117 -2 2 -36 -17 -76 -43z"/>
<path d="M3611 1403 c-42 -146 -42 -145 -26 -267 21 -165 30 -198 60 -223 30
-26 61 -29 90 -8 19 15 19 17 1 78 -49 175 -51 180 -61 242 -3 17 -8 37 -10
45 -4 14 -6 28 -20 145 -3 27 -8 51 -10 53 -2 2 -13 -27 -24 -65z"/>
<path d="M3945 1375 c7 -82 32 -227 46 -271 24 -78 120 -109 162 -52 l20 27
-59 88 c-32 48 -63 96 -69 105 -5 9 -32 52 -58 95 l-49 78 7 -70z"/>
<path d="M2191 942 c-36 -75 -127 -263 -203 -417 -86 -173 -140 -295 -142
-318 -10 -107 69 -193 189 -204 62 -6 130 22 173 71 15 17 85 160 156 316 71
157 146 322 168 368 37 82 46 112 30 112 -4 0 -16 14 -25 30 -10 17 -21 30
-25 30 -4 0 -18 -26 -31 -58 -14 -31 -44 -97 -66 -147 -23 -49 -91 -198 -151
-330 -117 -258 -149 -307 -215 -327 -70 -20 -122 29 -114 108 4 36 21 77 142
334 109 230 143 303 143 306 0 2 18 40 39 84 56 113 56 113 24 149 l-28 30
-64 -137z"/>
<path d="M3483 975 c-17 -53 -19 -65 -7 -65 8 0 22 8 33 19 15 15 17 26 11 60
-4 23 -9 44 -12 46 -2 2 -14 -25 -25 -60z"/>
</g>
</svg>
