<?xml version="1.0" encoding="UTF-8" standalone="no"?>
<!-- Created with Inkscape (http://www.inkscape.org/) -->

<svg
   xmlns:dc="http://purl.org/dc/elements/1.1/"
   xmlns:cc="http://creativecommons.org/ns#"
   xmlns:rdf="http://www.w3.org/1999/02/22-rdf-syntax-ns#"
   xmlns:svg="http://www.w3.org/2000/svg"
   xmlns="http://www.w3.org/2000/svg"
   xmlns:sodipodi="http://sodipodi.sourceforge.net/DTD/sodipodi-0.dtd"
   xmlns:inkscape="http://www.inkscape.org/namespaces/inkscape"
   width="36"
   height="36"
   viewBox="0 0 9.5249998 9.5250003"
   version="1.1"
   id="svg2391"
   inkscape:version="0.92.5 (2060ec1f9f, 2020-04-08)"
   sodipodi:docname="arrow_left.svg">
  <defs
     id="defs2385" />
  <sodipodi:namedview
     id="base"
     pagecolor="#ffffff"
     bordercolor="#666666"
     borderopacity="1.0"
     inkscape:pageopacity="0.0"
     inkscape:pageshadow="2"
     inkscape:zoom="5.6"
     inkscape:cx="42.598588"
     inkscape:cy="15.55839"
     inkscape:document-units="px"
     inkscape:current-layer="layer1"
     showgrid="false"
     units="px"
     inkscape:window-width="1864"
     inkscape:window-height="1016"
     inkscape:window-x="56"
     inkscape:window-y="27"
     inkscape:window-maximized="1" />
  <metadata
     id="metadata2388">
    <rdf:RDF>
      <cc:Work
         rdf:about="">
        <dc:format>image/svg+xml</dc:format>
        <dc:type
           rdf:resource="http://purl.org/dc/dcmitype/StillImage" />
        <dc:title></dc:title>
      </cc:Work>
    </rdf:RDF>
  </metadata>
  <g
     inkscape:label="Layer 1"
     inkscape:groupmode="layer"
     id="layer1"
     transform="translate(0,-287.47498)">
    <path
       style="opacity:1;fill:#567c98;fill-opacity:1;stroke:none;stroke-width:0.22495013;stroke-linecap:butt;stroke-miterlimit:4;stroke-dasharray:none;stroke-dashoffset:0;stroke-opacity:1"
       d="M 4.7619952,287.47498 A 4.7623703,4.7623703 0 0 0 0,292.23748 a 4.7623703,4.7623703 0 0 0 4.7619952,4.7625 4.7623703,4.7623703 0 0 0 4.7625049,-4.7625 4.7623703,4.7623703 0 0 0 -4.7625049,-4.7625 z m 0,0.59524 a 4.1672057,4.1672057 0 0 1 4.1672628,4.16726 4.1672057,4.1672057 0 0 1 -4.1672628,4.16725 4.1672057,4.1672057 0 0 1 -4.16674331,-4.16725 4.1672057,4.1672057 0 0 1 4.16674331,-4.16726 z m 0.6991072,1.5284 -1.9048059,1.9043 -0.7345655,0.73456 0.7345655,0.73455 1.9048059,1.90482 0.7345654,-0.73459 -1.9048057,-1.90478 1.9048057,-1.9043 z"
       id="path1793-7"
       inkscape:connector-curvature="0" />
  </g>
</svg>
