<?xml version="1.0" encoding="UTF-8" standalone="no"?>
<!-- Created with Inkscape (http://www.inkscape.org/) -->

<svg
   xmlns:dc="http://purl.org/dc/elements/1.1/"
   xmlns:cc="http://creativecommons.org/ns#"
   xmlns:rdf="http://www.w3.org/1999/02/22-rdf-syntax-ns#"
   xmlns:svg="http://www.w3.org/2000/svg"
   xmlns="http://www.w3.org/2000/svg"
   xmlns:sodipodi="http://sodipodi.sourceforge.net/DTD/sodipodi-0.dtd"
   xmlns:inkscape="http://www.inkscape.org/namespaces/inkscape"
   width="20"
   height="20"
   viewBox="0 0 5.2916665 5.2916668"
   version="1.1"
   id="svg1286"
   inkscape:version="0.92.5 (2060ec1f9f, 2020-04-08)"
   sodipodi:docname="icon_twitter.svg">
  <defs
     id="defs1280" />
  <sodipodi:namedview
     id="base"
     pagecolor="#ffffff"
     bordercolor="#666666"
     borderopacity="1.0"
     inkscape:pageopacity="0.0"
     inkscape:pageshadow="2"
     inkscape:zoom="15.839192"
     inkscape:cx="11.479967"
     inkscape:cy="11.889549"
     inkscape:document-units="px"
     inkscape:current-layer="layer1"
     showgrid="false"
     units="px"
     inkscape:window-width="932"
     inkscape:window-height="1016"
     inkscape:window-x="988"
     inkscape:window-y="27"
     inkscape:window-maximized="0" />
  <metadata
     id="metadata1283">
    <rdf:RDF>
      <cc:Work
         rdf:about="">
        <dc:format>image/svg+xml</dc:format>
        <dc:type
           rdf:resource="http://purl.org/dc/dcmitype/StillImage" />
        <dc:title></dc:title>
      </cc:Work>
    </rdf:RDF>
  </metadata>
  <g
     inkscape:label="Layer 1"
     inkscape:groupmode="layer"
     id="layer1"
     transform="translate(0,-291.70832)">
    <path
       style="opacity:1;fill:#567c98;fill-opacity:1;stroke:none;stroke-width:0.54990673;stroke-linecap:butt;stroke-miterlimit:4;stroke-dasharray:none;stroke-dashoffset:0;stroke-opacity:1"
       d="M 1.2388855,291.91619 C 0.55248,291.91619 0,292.46864 0,293.15506 v 2.39819 c 0,0.68639 0.55248,1.23887 1.2388855,1.23887 h 2.8139049 c 0.6864055,0 1.2388762,-0.55248 1.2388762,-1.23887 v -2.39819 c 0,-0.68642 -0.5524707,-1.23887 -1.2388762,-1.23887 z m 1.7935965,1.56497 a 0.6701788,0.6701788 0 0 1 0.4764915,0.21247 c 0.1528414,-0.0307 0.2966756,-0.0857 0.4262138,-0.16131 a 0.675355,0.675355 0 0 1 -0.2946307,0.3707 1.362152,1.362152 0 0 0 0.3847013,-0.10536 l 0.00651,0.002 a 1.3532981,1.3532981 0 0 1 -0.3352787,0.3471 c 0.00279,0.0286 0.00279,0.057 0.00279,0.0857 0,0.8839 -0.6736806,1.90508 -1.9068308,1.90508 a 1.9063318,1.9063318 0 0 1 -1.02950241,-0.30077 c 0.0532616,0.006 0.10644886,0.008 0.15956174,0.008 a 1.3440354,1.3440354 0 0 0 0.83102177,-0.28633 0.67235824,0.67235824 0 0 1 -0.626879,-0.46557 0.68053116,0.68053116 0 0 0 0.301221,-0.0118 0.67058743,0.67058743 0 0 1 -0.53770064,-0.65747 v -0.007 a 0.66799937,0.66799937 0 0 0 0.30380494,0.0839 c -0.1795186,-0.12028 -0.29812557,-0.32532 -0.29812557,-0.55824 a 0.6568297,0.6568297 0 0 1 0.0905355,-0.33703 c 0.33058447,0.40428 0.82426287,0.6719 1.38139047,0.69811 a 0.6701788,0.6701788 0 0 1 0.6653241,-0.82271 z"
       id="rect1274"
       inkscape:connector-curvature="0" />
  </g>
</svg>
