<?xml version="1.0" encoding="UTF-8" standalone="no"?>
<!-- Created with Inkscape (http://www.inkscape.org/) -->

<svg
   xmlns:dc="http://purl.org/dc/elements/1.1/"
   xmlns:cc="http://creativecommons.org/ns#"
   xmlns:rdf="http://www.w3.org/1999/02/22-rdf-syntax-ns#"
   xmlns:svg="http://www.w3.org/2000/svg"
   xmlns="http://www.w3.org/2000/svg"
   xmlns:sodipodi="http://sodipodi.sourceforge.net/DTD/sodipodi-0.dtd"
   xmlns:inkscape="http://www.inkscape.org/namespaces/inkscape"
   width="20"
   height="20"
   viewBox="0 0 5.2916665 5.2916668"
   version="1.1"
   id="svg1286"
   inkscape:version="0.92.5 (2060ec1f9f, 2020-04-08)"
   sodipodi:docname="icon_facebook.svg">
  <defs
     id="defs1280" />
  <sodipodi:namedview
     id="base"
     pagecolor="#ffffff"
     bordercolor="#666666"
     borderopacity="1.0"
     inkscape:pageopacity="0.0"
     inkscape:pageshadow="2"
     inkscape:zoom="15.839192"
     inkscape:cx="11.479967"
     inkscape:cy="11.889549"
     inkscape:document-units="px"
     inkscape:current-layer="layer1"
     showgrid="false"
     units="px"
     inkscape:window-width="932"
     inkscape:window-height="1016"
     inkscape:window-x="988"
     inkscape:window-y="27"
     inkscape:window-maximized="0" />
  <metadata
     id="metadata1283">
    <rdf:RDF>
      <cc:Work
         rdf:about="">
        <dc:format>image/svg+xml</dc:format>
        <dc:type
           rdf:resource="http://purl.org/dc/dcmitype/StillImage" />
        <dc:title></dc:title>
      </cc:Work>
    </rdf:RDF>
  </metadata>
  <g
     inkscape:label="Layer 1"
     inkscape:groupmode="layer"
     id="layer1"
     transform="translate(0,-291.70832)">
    <path
       style="opacity:1;fill:#567c98;fill-opacity:1;stroke:none;stroke-width:0.54990673;stroke-linecap:butt;stroke-miterlimit:4;stroke-dasharray:none;stroke-dashoffset:0;stroke-opacity:1"
       d="M 1.2388855,291.91618 C 0.55248002,291.91618 1.9999998e-8,292.46864 1.9999998e-8,293.15505 v 2.3982 c 0,0.68638 0.552480000000002,1.23886 1.238885480000002,1.23886 h 0.4152919 v -1.52257 h -0.581416 v -0.66229 h 0.581416 v -0.50404 c 0,-0.57385 0.341999,-0.89088 0.8651062,-0.89088 0.2503666,0 0.512343,0.0446 0.512343,0.0446 v 0.56348 H 2.7426847 c -0.2845637,0 -0.3733331,0.17648 -0.3733331,0.35758 v 0.42971 h 0.6351702 l -0.1014295,0.66228 H 2.3693516 v 1.52215 h 1.6834573 c 0.6864054,0 1.2388577,-0.55248 1.2388577,-1.23887 v -2.39819 c 0,-0.68642 -0.5524523,-1.23887 -1.2388577,-1.23887 z"
       id="rect1078-6"
       inkscape:connector-curvature="0" />
  </g>
</svg>
